<?xml version="1.0" encoding="UTF-8" standalone="no"?>
<!DOCTYPE svg PUBLIC "-//W3C//DTD SVG 1.1//EN"
 "http://www.w3.org/Graphics/SVG/1.1/DTD/svg11.dtd">
<!-- Generated by graphviz version 2.30.1 (20180420.1509)
 -->
<!-- Title: %3 Pages: 1 -->
<svg width="824pt" height="852pt"
 viewBox="0.00 0.00 824.00 852.00" xmlns="http://www.w3.org/2000/svg" xmlns:xlink="http://www.w3.org/1999/xlink">
<g id="graph0" class="graph" transform="scale(1 1) rotate(0) translate(4 848)">
<title>%3</title>
<polygon fill="white" stroke="white" points="-4,5 -4,-848 821,-848 821,5 -4,5"/>
<!-- 1 -->
<g id="node1" class="node"><title>1</title>
<ellipse fill="none" stroke="black" cx="183" cy="-134" rx="172.769" ry="18"/>
<text text-anchor="middle" x="183" y="-130.3" font-family="Times,serif" font-size="14.00">b1850.f19_g17.validation_mct.002</text>
</g>
<!-- 2 -->
<g id="node2" class="node"><title>2</title>
<ellipse fill="none" stroke="black" cx="430" cy="-134" rx="27.0966" ry="18"/>
<text text-anchor="middle" x="430" y="-130.3" font-family="Times,serif" font-size="14.00">ocn</text>
</g>
<!-- 1&#45;&gt;2 -->
<g id="edge1" class="edge"><title>1&#45;&gt;2</title>
<path fill="none" stroke="black" d="M356.155,-134C369.442,-134 381.791,-134 392.406,-134"/>
<polygon fill="black" stroke="black" points="392.415,-137.5 402.415,-134 392.415,-130.5 392.415,-137.5"/>
</g>
<!-- 3 -->
<g id="node3" class="node"><title>3</title>
<ellipse fill="none" stroke="black" cx="655" cy="-242" rx="115.931" ry="26.7407"/>
<text text-anchor="middle" x="655" y="-245.8" font-family="Times,serif" font-size="14.00">stream: pop.h </text>
<text text-anchor="middle" x="655" y="-230.8" font-family="Times,serif" font-size="14.00"> frequency: month_1</text>
</g>
<!-- 2&#45;&gt;3 -->
<g id="edge2" class="edge"><title>2&#45;&gt;3</title>
<path fill="none" stroke="black" d="M441.165,-150.476C452.154,-166.859 471.191,-191.447 494,-205 509.304,-214.093 526.66,-220.952 544.157,-226.125"/>
<polygon fill="black" stroke="black" points="543.308,-229.522 553.88,-228.829 545.184,-222.778 543.308,-229.522"/>
</g>
<!-- 4 -->
<g id="node4" class="node"><title>4</title>
<ellipse fill="none" stroke="black" cx="655" cy="-170" rx="156.042" ry="26.7407"/>
<text text-anchor="middle" x="655" y="-173.8" font-family="Times,serif" font-size="14.00">stream: pop.h.ecosys.nday1 </text>
<text text-anchor="middle" x="655" y="-158.8" font-family="Times,serif" font-size="14.00"> frequency: day_1</text>
</g>
<!-- 2&#45;&gt;4 -->
<g id="edge3" class="edge"><title>2&#45;&gt;4</title>
<path fill="none" stroke="black" d="M456.581,-138.13C475.565,-141.194 502.98,-145.62 531.367,-150.203"/>
<polygon fill="black" stroke="black" points="531.006,-153.69 541.436,-151.828 532.121,-146.779 531.006,-153.69"/>
</g>
<!-- 5 -->
<g id="node5" class="node"><title>5</title>
<ellipse fill="none" stroke="black" cx="655" cy="-98" rx="160.526" ry="26.7407"/>
<text text-anchor="middle" x="655" y="-101.8" font-family="Times,serif" font-size="14.00">stream: pop.h.ecosys.nyear1 </text>
<text text-anchor="middle" x="655" y="-86.8" font-family="Times,serif" font-size="14.00"> frequency: year_1</text>
</g>
<!-- 2&#45;&gt;5 -->
<g id="edge4" class="edge"><title>2&#45;&gt;5</title>
<path fill="none" stroke="black" d="M456.581,-129.87C475.125,-126.877 501.715,-122.584 529.397,-118.115"/>
<polygon fill="black" stroke="black" points="530.317,-121.512 539.632,-116.463 529.202,-114.602 530.317,-121.512"/>
</g>
<!-- 6 -->
<g id="node6" class="node"><title>6</title>
<ellipse fill="none" stroke="black" cx="655" cy="-26" rx="96.3333" ry="26.7407"/>
<text text-anchor="middle" x="655" y="-29.8" font-family="Times,serif" font-size="14.00">stream: pop.h </text>
<text text-anchor="middle" x="655" y="-14.8" font-family="Times,serif" font-size="14.00"> frequency: once</text>
</g>
<!-- 2&#45;&gt;6 -->
<g id="edge5" class="edge"><title>2&#45;&gt;6</title>
<path fill="none" stroke="black" d="M441.093,-117.262C452.025,-100.625 471.018,-75.6716 494,-62 512.484,-51.0045 533.99,-43.3634 555.126,-38.0547"/>
<polygon fill="black" stroke="black" points="556.193,-41.3994 565.126,-35.7038 554.591,-34.5851 556.193,-41.3994"/>
</g>
<!-- 7 -->
<g id="node7" class="node"><title>7</title>
<ellipse fill="none" stroke="black" cx="183" cy="-422" rx="172.769" ry="18"/>
<text text-anchor="middle" x="183" y="-418.3" font-family="Times,serif" font-size="14.00">b1850.f19_g17.validation_mct.004</text>
</g>
<!-- 8 -->
<g id="node8" class="node"><title>8</title>
<ellipse fill="none" stroke="black" cx="430" cy="-422" rx="27.0966" ry="18"/>
<text text-anchor="middle" x="430" y="-418.3" font-family="Times,serif" font-size="14.00">ocn</text>
</g>
<!-- 7&#45;&gt;8 -->
<g id="edge6" class="edge"><title>7&#45;&gt;8</title>
<path fill="none" stroke="black" d="M356.155,-422C369.442,-422 381.791,-422 392.406,-422"/>
<polygon fill="black" stroke="black" points="392.415,-425.5 402.415,-422 392.415,-418.5 392.415,-425.5"/>
</g>
<!-- 9 -->
<g id="node9" class="node"><title>9</title>
<ellipse fill="none" stroke="black" cx="655" cy="-530" rx="115.931" ry="26.7407"/>
<text text-anchor="middle" x="655" y="-533.8" font-family="Times,serif" font-size="14.00">stream: pop.h </text>
<text text-anchor="middle" x="655" y="-518.8" font-family="Times,serif" font-size="14.00"> frequency: month_1</text>
</g>
<!-- 8&#45;&gt;9 -->
<g id="edge7" class="edge"><title>8&#45;&gt;9</title>
<path fill="none" stroke="black" d="M441.165,-438.476C452.154,-454.859 471.191,-479.447 494,-493 509.304,-502.093 526.66,-508.952 544.157,-514.125"/>
<polygon fill="black" stroke="black" points="543.308,-517.522 553.88,-516.829 545.184,-510.778 543.308,-517.522"/>
</g>
<!-- 10 -->
<g id="node10" class="node"><title>10</title>
<ellipse fill="none" stroke="black" cx="655" cy="-458" rx="156.042" ry="26.7407"/>
<text text-anchor="middle" x="655" y="-461.8" font-family="Times,serif" font-size="14.00">stream: pop.h.ecosys.nday1 </text>
<text text-anchor="middle" x="655" y="-446.8" font-family="Times,serif" font-size="14.00"> frequency: day_1</text>
</g>
<!-- 8&#45;&gt;10 -->
<g id="edge8" class="edge"><title>8&#45;&gt;10</title>
<path fill="none" stroke="black" d="M456.581,-426.13C475.565,-429.194 502.98,-433.62 531.367,-438.203"/>
<polygon fill="black" stroke="black" points="531.006,-441.69 541.436,-439.828 532.121,-434.779 531.006,-441.69"/>
</g>
<!-- 11 -->
<g id="node11" class="node"><title>11</title>
<ellipse fill="none" stroke="black" cx="655" cy="-386" rx="160.526" ry="26.7407"/>
<text text-anchor="middle" x="655" y="-389.8" font-family="Times,serif" font-size="14.00">stream: pop.h.ecosys.nyear1 </text>
<text text-anchor="middle" x="655" y="-374.8" font-family="Times,serif" font-size="14.00"> frequency: year_1</text>
</g>
<!-- 8&#45;&gt;11 -->
<g id="edge9" class="edge"><title>8&#45;&gt;11</title>
<path fill="none" stroke="black" d="M456.581,-417.87C475.125,-414.877 501.715,-410.584 529.397,-406.115"/>
<polygon fill="black" stroke="black" points="530.317,-409.512 539.632,-404.463 529.202,-402.602 530.317,-409.512"/>
</g>
<!-- 12 -->
<g id="node12" class="node"><title>12</title>
<ellipse fill="none" stroke="black" cx="655" cy="-314" rx="96.3333" ry="26.7407"/>
<text text-anchor="middle" x="655" y="-317.8" font-family="Times,serif" font-size="14.00">stream: pop.h </text>
<text text-anchor="middle" x="655" y="-302.8" font-family="Times,serif" font-size="14.00"> frequency: once</text>
</g>
<!-- 8&#45;&gt;12 -->
<g id="edge10" class="edge"><title>8&#45;&gt;12</title>
<path fill="none" stroke="black" d="M441.093,-405.262C452.025,-388.625 471.018,-363.672 494,-350 512.484,-339.004 533.99,-331.363 555.126,-326.055"/>
<polygon fill="black" stroke="black" points="556.193,-329.399 565.126,-323.704 554.591,-322.585 556.193,-329.399"/>
</g>
<!-- 13 -->
<g id="node13" class="node"><title>13</title>
<ellipse fill="none" stroke="black" cx="183" cy="-710" rx="182.768" ry="18"/>
<text text-anchor="middle" x="183" y="-706.3" font-family="Times,serif" font-size="14.00">b1850.f19_g17.validation_nuopc.004</text>
</g>
<!-- 14 -->
<g id="node14" class="node"><title>14</title>
<ellipse fill="none" stroke="black" cx="430" cy="-710" rx="27.0966" ry="18"/>
<text text-anchor="middle" x="430" y="-706.3" font-family="Times,serif" font-size="14.00">ocn</text>
</g>
<!-- 13&#45;&gt;14 -->
<g id="edge11" class="edge"><title>13&#45;&gt;14</title>
<path fill="none" stroke="black" d="M365.906,-710C375.5,-710 384.452,-710 392.426,-710"/>
<polygon fill="black" stroke="black" points="392.661,-713.5 402.661,-710 392.661,-706.5 392.661,-713.5"/>
</g>
<!-- 15 -->
<g id="node15" class="node"><title>15</title>
<ellipse fill="none" stroke="black" cx="655" cy="-818" rx="115.931" ry="26.7407"/>
<text text-anchor="middle" x="655" y="-821.8" font-family="Times,serif" font-size="14.00">stream: pop.h </text>
<text text-anchor="middle" x="655" y="-806.8" font-family="Times,serif" font-size="14.00"> frequency: month_1</text>
</g>
<!-- 14&#45;&gt;15 -->
<g id="edge12" class="edge"><title>14&#45;&gt;15</title>
<path fill="none" stroke="black" d="M441.165,-726.476C452.154,-742.859 471.191,-767.447 494,-781 509.304,-790.093 526.66,-796.952 544.157,-802.125"/>
<polygon fill="black" stroke="black" points="543.308,-805.522 553.88,-804.829 545.184,-798.778 543.308,-805.522"/>
</g>
<!-- 16 -->
<g id="node16" class="node"><title>16</title>
<ellipse fill="none" stroke="black" cx="655" cy="-746" rx="156.042" ry="26.7407"/>
<text text-anchor="middle" x="655" y="-749.8" font-family="Times,serif" font-size="14.00">stream: pop.h.ecosys.nday1 </text>
<text text-anchor="middle" x="655" y="-734.8" font-family="Times,serif" font-size="14.00"> frequency: day_1</text>
</g>
<!-- 14&#45;&gt;16 -->
<g id="edge13" class="edge"><title>14&#45;&gt;16</title>
<path fill="none" stroke="black" d="M456.581,-714.13C475.565,-717.194 502.98,-721.62 531.367,-726.203"/>
<polygon fill="black" stroke="black" points="531.006,-729.69 541.436,-727.828 532.121,-722.779 531.006,-729.69"/>
</g>
<!-- 17 -->
<g id="node17" class="node"><title>17</title>
<ellipse fill="none" stroke="black" cx="655" cy="-674" rx="160.526" ry="26.7407"/>
<text text-anchor="middle" x="655" y="-677.8" font-family="Times,serif" font-size="14.00">stream: pop.h.ecosys.nyear1 </text>
<text text-anchor="middle" x="655" y="-662.8" font-family="Times,serif" font-size="14.00"> frequency: year_1</text>
</g>
<!-- 14&#45;&gt;17 -->
<g id="edge14" class="edge"><title>14&#45;&gt;17</title>
<path fill="none" stroke="black" d="M456.581,-705.87C475.125,-702.877 501.715,-698.584 529.397,-694.115"/>
<polygon fill="black" stroke="black" points="530.317,-697.512 539.632,-692.463 529.202,-690.602 530.317,-697.512"/>
</g>
<!-- 18 -->
<g id="node18" class="node"><title>18</title>
<ellipse fill="none" stroke="black" cx="655" cy="-602" rx="96.3333" ry="26.7407"/>
<text text-anchor="middle" x="655" y="-605.8" font-family="Times,serif" font-size="14.00">stream: pop.h </text>
<text text-anchor="middle" x="655" y="-590.8" font-family="Times,serif" font-size="14.00"> frequency: once</text>
</g>
<!-- 14&#45;&gt;18 -->
<g id="edge15" class="edge"><title>14&#45;&gt;18</title>
<path fill="none" stroke="black" d="M441.093,-693.262C452.025,-676.625 471.018,-651.672 494,-638 512.484,-627.004 533.99,-619.363 555.126,-614.055"/>
<polygon fill="black" stroke="black" points="556.193,-617.399 565.126,-611.704 554.591,-610.585 556.193,-617.399"/>
</g>
</g>
</svg>
