<?xml version="1.0" encoding="UTF-8" standalone="no"?>
<!DOCTYPE svg PUBLIC "-//W3C//DTD SVG 1.1//EN"
 "http://www.w3.org/Graphics/SVG/1.1/DTD/svg11.dtd">
<!-- Generated by graphviz version 2.30.1 (20180420.1509)
 -->
<!-- Title: %3 Pages: 1 -->
<svg width="830pt" height="420pt"
 viewBox="0.00 0.00 830.00 420.00" xmlns="http://www.w3.org/2000/svg" xmlns:xlink="http://www.w3.org/1999/xlink">
<g id="graph0" class="graph" transform="scale(1 1) rotate(0) translate(4 416)">
<title>%3</title>
<polygon fill="white" stroke="white" points="-4,5 -4,-416 827,-416 827,5 -4,5"/>
<!-- 1 -->
<g id="node1" class="node"><title>1</title>
<ellipse fill="none" stroke="black" cx="224" cy="-170" rx="208.763" ry="18"/>
<text text-anchor="middle" x="224" y="-166.3" font-family="Times,serif" font-size="14.00">g.e22.G1850ECO_JRA_HR.TL319_t13.004</text>
</g>
<!-- 2 -->
<g id="node2" class="node"><title>2</title>
<ellipse fill="none" stroke="black" cx="512" cy="-206" rx="27.0966" ry="18"/>
<text text-anchor="middle" x="512" y="-202.3" font-family="Times,serif" font-size="14.00">ocn</text>
</g>
<!-- 1&#45;&gt;2 -->
<g id="edge1" class="edge"><title>1&#45;&gt;2</title>
<path fill="none" stroke="black" d="M342.978,-184.85C390.463,-190.828 441.747,-197.283 475,-201.469"/>
<polygon fill="black" stroke="black" points="474.776,-204.968 485.135,-202.744 475.65,-198.023 474.776,-204.968"/>
</g>
<!-- 6 -->
<g id="node6" class="node"><title>6</title>
<ellipse fill="none" stroke="black" cx="512" cy="-98" rx="27" ry="18"/>
<text text-anchor="middle" x="512" y="-94.3" font-family="Times,serif" font-size="14.00">ice</text>
</g>
<!-- 1&#45;&gt;6 -->
<g id="edge5" class="edge"><title>1&#45;&gt;6</title>
<path fill="none" stroke="black" d="M292.778,-152.937C350.552,-138.393 431.226,-118.083 476.553,-106.672"/>
<polygon fill="black" stroke="black" points="477.632,-110.01 486.475,-104.174 475.923,-103.221 477.632,-110.01"/>
</g>
<!-- 3 -->
<g id="node3" class="node"><title>3</title>
<ellipse fill="none" stroke="black" cx="699" cy="-314" rx="115.931" ry="26.7407"/>
<text text-anchor="middle" x="699" y="-317.8" font-family="Times,serif" font-size="14.00">stream: pop.h </text>
<text text-anchor="middle" x="699" y="-302.8" font-family="Times,serif" font-size="14.00"> frequency: month_1</text>
</g>
<!-- 2&#45;&gt;3 -->
<g id="edge2" class="edge"><title>2&#45;&gt;3</title>
<path fill="none" stroke="black" d="M523.567,-222.465C534.739,-238.599 553.798,-262.777 576,-277 585.132,-282.85 595.238,-287.816 605.61,-292.023"/>
<polygon fill="black" stroke="black" points="604.6,-295.383 615.19,-295.675 607.094,-288.842 604.6,-295.383"/>
</g>
<!-- 4 -->
<g id="node4" class="node"><title>4</title>
<ellipse fill="none" stroke="black" cx="699" cy="-242" rx="118.588" ry="26.7407"/>
<text text-anchor="middle" x="699" y="-245.8" font-family="Times,serif" font-size="14.00">stream: pop.h.nday1 </text>
<text text-anchor="middle" x="699" y="-230.8" font-family="Times,serif" font-size="14.00"> frequency: day_1</text>
</g>
<!-- 2&#45;&gt;4 -->
<g id="edge3" class="edge"><title>2&#45;&gt;4</title>
<path fill="none" stroke="black" d="M538.336,-210.93C554.455,-214.067 576.48,-218.353 599.019,-222.739"/>
<polygon fill="black" stroke="black" points="598.558,-226.215 609.042,-224.689 599.895,-219.344 598.558,-226.215"/>
</g>
<!-- 5 -->
<g id="node5" class="node"><title>5</title>
<ellipse fill="none" stroke="black" cx="699" cy="-170" rx="123.073" ry="26.7407"/>
<text text-anchor="middle" x="699" y="-173.8" font-family="Times,serif" font-size="14.00">stream: pop.h.nyear1 </text>
<text text-anchor="middle" x="699" y="-158.8" font-family="Times,serif" font-size="14.00"> frequency: year_1</text>
</g>
<!-- 2&#45;&gt;5 -->
<g id="edge4" class="edge"><title>2&#45;&gt;5</title>
<path fill="none" stroke="black" d="M538.336,-201.07C553.954,-198.031 575.115,-193.913 596.918,-189.67"/>
<polygon fill="black" stroke="black" points="597.816,-193.061 606.963,-187.715 596.478,-186.19 597.816,-193.061"/>
</g>
<!-- 7 -->
<g id="node7" class="node"><title>7</title>
<ellipse fill="none" stroke="black" cx="699" cy="-98" rx="115.931" ry="26.7407"/>
<text text-anchor="middle" x="699" y="-101.8" font-family="Times,serif" font-size="14.00">stream: cice.h </text>
<text text-anchor="middle" x="699" y="-86.8" font-family="Times,serif" font-size="14.00"> frequency: month_1</text>
</g>
<!-- 6&#45;&gt;7 -->
<g id="edge6" class="edge"><title>6&#45;&gt;7</title>
<path fill="none" stroke="black" d="M539.114,-98C548.702,-98 560.301,-98 572.817,-98"/>
<polygon fill="black" stroke="black" points="573.029,-101.5 583.029,-98 573.029,-94.5001 573.029,-101.5"/>
</g>
<!-- 8 -->
<g id="node8" class="node"><title>8</title>
<ellipse fill="none" stroke="black" cx="699" cy="-26" rx="101.647" ry="26.7407"/>
<text text-anchor="middle" x="699" y="-29.8" font-family="Times,serif" font-size="14.00">stream: cice.h1 </text>
<text text-anchor="middle" x="699" y="-14.8" font-family="Times,serif" font-size="14.00"> frequency: day_1</text>
</g>
<!-- 6&#45;&gt;8 -->
<g id="edge7" class="edge"><title>6&#45;&gt;8</title>
<path fill="none" stroke="black" d="M531.982,-85.6052C544.186,-78.0315 560.588,-68.5714 576,-62 588.587,-56.6332 602.227,-51.7554 615.675,-47.4443"/>
<polygon fill="black" stroke="black" points="616.91,-50.7254 625.414,-44.4064 614.826,-44.0429 616.91,-50.7254"/>
</g>
<!-- 9 -->
<g id="node9" class="node"><title>9</title>
<ellipse fill="none" stroke="black" cx="224" cy="-386" rx="223.66" ry="18"/>
<text text-anchor="middle" x="224" y="-382.3" font-family="Times,serif" font-size="14.00">za_g.e22.G1850ECO_JRA_HR.TL319_t13.004</text>
</g>
<!-- 10 -->
<g id="node10" class="node"><title>10</title>
<ellipse fill="none" stroke="black" cx="512" cy="-386" rx="27.0966" ry="18"/>
<text text-anchor="middle" x="512" y="-382.3" font-family="Times,serif" font-size="14.00">ocn</text>
</g>
<!-- 9&#45;&gt;10 -->
<g id="edge8" class="edge"><title>9&#45;&gt;10</title>
<path fill="none" stroke="black" d="M447.882,-386C457.551,-386 466.502,-386 474.444,-386"/>
<polygon fill="black" stroke="black" points="474.62,-389.5 484.62,-386 474.62,-382.5 474.62,-389.5"/>
</g>
<!-- 11 -->
<g id="node11" class="node"><title>11</title>
<ellipse fill="none" stroke="black" cx="699" cy="-386" rx="115.931" ry="26.7407"/>
<text text-anchor="middle" x="699" y="-389.8" font-family="Times,serif" font-size="14.00">stream: pop.h </text>
<text text-anchor="middle" x="699" y="-374.8" font-family="Times,serif" font-size="14.00"> frequency: month_1</text>
</g>
<!-- 10&#45;&gt;11 -->
<g id="edge9" class="edge"><title>10&#45;&gt;11</title>
<path fill="none" stroke="black" d="M539.506,-386C549.045,-386 560.538,-386 572.924,-386"/>
<polygon fill="black" stroke="black" points="573.029,-389.5 583.029,-386 573.029,-382.5 573.029,-389.5"/>
</g>
</g>
</svg>
